<?xml version="1.0" encoding="utf-8"?>
<!-- Generator: Adobe Illustrator 17.1.0, SVG Export Plug-In . SVG Version: 6.00 Build 0)  -->
<!DOCTYPE svg PUBLIC "-//W3C//DTD SVG 1.1//EN" "http://www.w3.org/Graphics/SVG/1.1/DTD/svg11.dtd">
<svg version="1.1" id="controls.fw-Page_x25_201" xmlns="http://www.w3.org/2000/svg" xmlns:xlink="http://www.w3.org/1999/xlink"
	 x="0px" y="0px" viewBox="0 0 144 32" enable-background="new 0 0 144 32" xml:space="preserve">
<path fill="none" d="z"/>
<g id="BG">
</g>
<g id="controls">
	<path id="Line" fill="none" stroke="#FFFFFF" d="M98.5,7.5h11"/>
	<path id="Line2" fill="none" stroke="#FFFFFF" d="M98.5,3.5h11"/>
	<path id="Line3" fill="none" stroke="#FFFFFF" d="M98.5,11.5h11"/>
	<path id="Ellipse" fill="#FFFFFF" d="M108,11.5c0-0.8,0.4-1.5,1-1.5s1,0.7,1,1.5s-0.4,1.5-1,1.5S108,12.3,108,11.5z"/>
	<path id="Ellipse2" fill="#FFFFFF" d="M104,7.5c0-0.8,0.4-1.5,1-1.5s1,0.7,1,1.5S105.6,9,105,9S104,8.3,104,7.5z"/>
	<path id="Ellipse3" fill="#FFFFFF" d="M108,3.5c0-0.8,0.4-1.5,1-1.5s1,0.7,1,1.5S109.6,5,109,5S108,4.3,108,3.5z"/>
</g>
<g id="backlight">
	<g id="off">
		<rect x="83" y="21" fill="#333333" stroke="#FFFFFF" width="10" height="6"/>
	</g>
	<g id="on">
		
			<radialGradient id="Ellipse4_1_" cx="-396" cy="378.2" r="0.5" gradientTransform="matrix(14 0 0 -10 5632 3790)" gradientUnits="userSpaceOnUse">
			<stop  offset="0" style="stop-color:#FFFFFF"/>
			<stop  offset="1" style="stop-color:#F2F2F2;stop-opacity:0.2"/>
		</radialGradient>
		<path id="Ellipse4" fill="url(#Ellipse4_1_)" d="M81,8c0-2.8,3.1-5,7-5s7,2.2,7,5s-3.1,5-7,5S81,10.8,81,8z"/>
		<rect x="83" y="5" fill="#333333" stroke="#FFFFFF" width="10" height="6"/>
	</g>
</g>
<g id="loop">
	<g id="on2">
		<path fill="#F1AA63" d="M73.8,4.2c1.4,0.7,2.4,2.1,2.4,3.8c0,2.3-1.9,4.2-4.2,4.2s-4.2-1.9-4.2-4.2c0-1.7,1-3.1,2.4-3.8l-1.3-1.3
			C67.2,3.9,66,5.8,66,8c0,3.3,2.7,6,6,6s6-2.7,6-6c0-2.2-1.2-4.1-2.9-5.1L73.8,4.2z"/>
		<path fill="#F1AA63" d="M71,2h-5l5,5V2z"/>
	</g>
	<g id="off2">
		<path fill="#F1AA63" d="M73.8,20.2c1.4,0.7,2.4,2.1,2.4,3.8c0,2.3-1.9,4.2-4.2,4.2s-4.2-1.9-4.2-4.2c0-1.7,1-3.1,2.4-3.8l-1.3-1.3
			c-1.7,1.1-2.9,3-2.9,5.1c0,3.3,2.7,6,6,6s6-2.7,6-6c0-2.2-1.2-4.1-2.9-5.1L73.8,20.2z"/>
		<path fill="#F1AA63" d="M71,18h-5l5,5V18z"/>
	</g>
</g>
<rect x="49" y="2" display="none" fill="none" stroke="#B0B0B0" width="14" height="12"/>
<text transform="matrix(1 0 0 1 49 17)" fill="#FFFFFF" font-family="'ArialMT'" font-size="10">cc</text>
<path fill="none" stroke="#F1AA63" d="M55,7c-4.7-3.2-4.9,5.9,0,3"/>
<path fill="none" stroke="#F1AA63" d="M60,7c-4.7-3.2-4.9,5.9,0,3"/>
<path fill="#F1AA63" d="M50,3h12v10H50V3z M49,2v12h14V2H49z"/>
<rect x="49" y="2" fill="none" width="14" height="12"/>
<g id="no_x25_20sound">
	<rect x="17" y="5" fill="#F1AA63" width="5" height="6"/>
	<path fill="#F1AA63" d="M21,5l4-3v12l-4-2.9V5z"/>
</g>
<rect x="17" y="21" fill="#F1AA63" width="5" height="6"/>
<path fill="#F1AA63" d="M21,21l4-3v12l-4-2.9V21z"/>
<path fill="none" stroke="#F1AA63" d="M27,18c0,0,3.1-0.6,3,6s-3,6-3,6"/>
<path fill="none" stroke="#F1AA63" d="M26,21c0,0,2-0.3,2,3c0,3.3-2,3-2,3"/>
<g id="play_x2F_pause">
	<g id="play">
		<path id="Polygon" fill="#F1AA63" d="M14,8.5L3,14V3L14,8.5z"/>
	</g>
	<g id="pause">
		<rect x="3" y="18" fill="#F1AA63" width="3" height="12"/>
		<rect x="10" y="18" fill="#F1AA63" width="3" height="12"/>
	</g>
</g>
<g id="fullscreen">
	<g id="enter_x25_201">
		<path fill="#F1AA63" d="M34,2h5l-5,5V2z"/>
		<path fill="#F1AA63" d="M34,14h5l-5-5V14z"/>
		<path fill="#F1AA63" d="M46,2h-5l5,5V2z"/>
		<path fill="#F1AA63" d="M46,14h-5l5-5V14z"/>
	</g>
	<g id="exit">
		<path fill="#F1AA63" d="M42,22h4l-4-4V22z"/>
		<path fill="#F1AA63" d="M38,22v-4l-4,4H38z"/>
		<path fill="#F1AA63" d="M38,26h-4l4,4V26z"/>
		<path fill="#F1AA63" d="M42,26v4l4-4H42z"/>
	</g>
</g>
<g id="stop">
	<rect x="115" y="3" fill="#F1AA63" width="10" height="10"/>
</g>
<g id="chooser">
	<path fill="#F1AA63" d="M135.2,6.2c1-0.4,2.2,0.1,2.6,1.1c0.4,1-0.1,2.2-1.1,2.6c-1,0.4-2.2-0.1-2.6-1.1S134.2,6.6,135.2,6.2z
		 M133.3,1.4L136,4l2.7-2.6l0.1,3.8l3.8,0.1L140,8l2.6,2.7l-3.8,0.1l-0.1,3.8L136,12l-2.7,2.6l-0.1-3.8l-3.8-0.1L132,8l-2.6-2.7
		l3.8-0.1L133.3,1.4z"/>
</g>
<path fill="none" d="z"/>
</svg>
